<svg fill="none" xmlns="http://www.w3.org/2000/svg">
    <symbol viewBox="0 0 30 30" fill="none" id="icon-smile">
        <rect x="0.5" y="0.5" width="29" height="29" rx="14.5" stroke="#EBEBEB" />
        <g clip-path="url(#clip0_1_1809)">
            <path
                d="M14.9998 20.9231C18.2711 20.9231 20.9229 18.2712 20.9229 15C20.9229 11.7288 18.2711 9.0769 14.9998 9.0769C11.7286 9.0769 9.07675 11.7288 9.07675 15C9.07675 18.2712 11.7286 20.9231 14.9998 20.9231Z"
                stroke="#878787" stroke-width="1.05062" stroke-linecap="round"
                stroke-linejoin="round" />
            <path
                d="M12.6661 16.2563C12.6661 16.2563 13.5411 17.3333 14.9994 17.3333C16.4577 17.3333 17.3327 16.2563 17.3327 16.2563"
                stroke="#878787" stroke-width="1.05062" stroke-linecap="round"
                stroke-linejoin="round" />
            <path d="M13.3843 13.3845H13.3928" stroke="#878787" stroke-width="1.05062"
                stroke-linecap="round" stroke-linejoin="round" />
            <path d="M16.7499 13.25H16.7584" stroke="#878787" stroke-width="1.05062"
                stroke-linecap="round" stroke-linejoin="round" />
        </g>
        <defs>
            <clipPath id="clip0_1_1809">
                <rect width="14" height="14" fill="white" transform="translate(8 8)" />
            </clipPath>
        </defs>
    </symbol>

    <symbol viewBox="0 0 35 35" fill="none" id="i_cloce_modal">
        <rect width="35" height="35" rx="17.5" fill="white" fill-opacity="0.15" />
        <path d="M11.8389 11.8389L23.1609 23.1609" stroke="white" stroke-width="1.41525"
            stroke-linecap="round" />
        <path d="M23.1611 11.8389L11.8391 23.1609" stroke="white" stroke-width="1.41525"
            stroke-linecap="round" />
    </symbol>
</svg>