<svg fill="none" xmlns="http://www.w3.org/2000/svg">
    <symbol viewBox="0 0 30 30" fill="none" id="icon-smile">
        <rect x="0.5" y="0.5" width="29" height="29" rx="14.5" stroke="#EBEBEB" />
        <g clip-path="url(#clip0_1_1809)">
            <path
                d="M14.9998 20.9231C18.2711 20.9231 20.9229 18.2712 20.9229 15C20.9229 11.7288 18.2711 9.0769 14.9998 9.0769C11.7286 9.0769 9.07675 11.7288 9.07675 15C9.07675 18.2712 11.7286 20.9231 14.9998 20.9231Z"
                stroke="#878787" stroke-width="1.05062" stroke-linecap="round"
                stroke-linejoin="round" />
            <path
                d="M12.6661 16.2563C12.6661 16.2563 13.5411 17.3333 14.9994 17.3333C16.4577 17.3333 17.3327 16.2563 17.3327 16.2563"
                stroke="#878787" stroke-width="1.05062" stroke-linecap="round"
                stroke-linejoin="round" />
            <path d="M13.3843 13.3845H13.3928" stroke="#878787" stroke-width="1.05062"
                stroke-linecap="round" stroke-linejoin="round" />
            <path d="M16.7499 13.25H16.7584" stroke="#878787" stroke-width="1.05062"
                stroke-linecap="round" stroke-linejoin="round" />
        </g>
        <defs>
            <clipPath id="clip0_1_1809">
                <rect width="14" height="14" fill="white" transform="translate(8 8)" />
            </clipPath>
        </defs>
    </symbol>

    <symbol viewBox="0 0 35 35" fill="none" id="i_cloce_modal">
        <rect width="35" height="35" rx="17.5" fill="white" fill-opacity="0.15" />
        <path d="M11.8389 11.8389L23.1609 23.1609" stroke="white" stroke-width="1.41525"
            stroke-linecap="round" />
        <path d="M23.1611 11.8389L11.8391 23.1609" stroke="white" stroke-width="1.41525"
            stroke-linecap="round" />
    </symbol>

    <symbol viewBox="0 0 40 40" fill="none" id="share">
        <rect x="0.5" y="0.5" width="39" height="39" rx="19.5" stroke="#F2F2F2" />
        <path
            d="M27.365 19.217C27.365 19.3291 27.3286 19.3999 27.3056 19.4271L22.1981 24.0703C22.1948 24.0457 22.1928 24.0184 22.1928 23.9886V21.3642V20.7692H21.5978C18.0336 20.7692 14.9136 22.7201 13.0672 25.6516C13.0306 25.7044 12.9877 25.7309 12.9407 25.7444C12.886 25.7602 12.8186 25.7595 12.7546 25.7388C12.6895 25.7177 12.6552 25.6853 12.6432 25.6683L12.6426 25.6674C12.6378 25.6606 12.6314 25.6516 12.6374 25.6191C12.871 24.5305 13.1746 23.4817 13.6918 22.5211L13.6975 22.5105L13.7028 22.4996C15.1258 19.5788 18.1129 17.4262 21.5978 17.4262H22.1928V16.8312V14.4453C22.1928 14.4155 22.1948 14.3883 22.1981 14.3636L27.3056 19.0069C27.3286 19.0341 27.365 19.1049 27.365 19.217Z"
            stroke="#6D6D6D" stroke-width="1.19" />
    </symbol>

    <symbol viewBox="0 0 40 40" fill="none" id="info">
        <path fill-rule="evenodd" clip-rule="evenodd"
            d="M11 20.0002C11 15.0489 15.0484 11.0005 19.9997 11.0005C24.951 11.0005 28.9994 15.0489 28.9994 20.0002C28.9994 24.9515 24.951 28.9999 19.9997 28.9999C15.0484 28.9999 11 24.9515 11 20.0002ZM19.9997 12.2563C15.742 12.2563 12.2558 15.7425 12.2558 20.0002C12.2558 24.2579 15.742 27.7442 19.9997 27.7442C24.2575 27.7442 27.7437 24.2579 27.7437 20.0002C27.7437 15.7425 24.2575 12.2563 19.9997 12.2563Z"
            fill="#6D6D6D" />
        <path fill-rule="evenodd" clip-rule="evenodd"
            d="M20 16.0234C20.3467 16.0234 20.6278 16.3046 20.6278 16.6513V20.8372C20.6278 21.184 20.3467 21.4651 20 21.4651C19.6532 21.4651 19.3721 21.184 19.3721 20.8372V16.6513C19.3721 16.3046 19.6532 16.0234 20 16.0234Z"
            fill="#6D6D6D" />
        <path fill-rule="evenodd" clip-rule="evenodd"
            d="M19.1582 23.3489C19.1582 22.8865 19.533 22.5117 19.9954 22.5117H20.0029C20.4653 22.5117 20.8401 22.8865 20.8401 23.3489C20.8401 23.8113 20.4653 24.1861 20.0029 24.1861H19.9954C19.533 24.1861 19.1582 23.8113 19.1582 23.3489Z"
            fill="#6D6D6D" />
        <rect x="0.5" y="0.5" width="39" height="39" rx="19.5" stroke="#F2F2F2" />
    </symbol>
</svg>